<?xml version="1.0" encoding="iso-8859-1"?>
<!-- Generator: Adobe Illustrator 19.0.0, SVG Export Plug-In . SVG Version: 6.00 Build 0)  -->
<svg fill="#fff" version="1.1" id="Layer_1" xmlns="http://www.w3.org/2000/svg" xmlns:xlink="http://www.w3.org/1999/xlink" x="0px" y="0px"
	 viewBox="0 0 512 512" style="enable-background:new 0 0 512 512;" xml:space="preserve">
<g>
	<g>
		<path d="M422.698,214.326V136.93C422.698,61.427,361.271,0,285.767,0s-136.93,61.427-136.93,136.93h35.721
			c0-55.807,45.402-101.209,101.209-101.209S386.977,81.123,386.977,136.93v77.395H101.209V512h369.116V214.326H422.698z
			 M434.605,476.279H136.93V250.047h297.674V476.279z"/>
	</g>
</g>
<g>
	<g>
		<path d="M303.628,377.231v-61.696h-35.721v61.696c-3.694,4.196-5.953,9.683-5.953,15.699c0,13.131,10.683,23.814,23.814,23.814
			c13.131,0,23.814-10.683,23.814-23.814C309.581,386.914,307.321,381.428,303.628,377.231z"/>
	</g>
</g>
<g>
	<g>
		<rect x="41.674" y="119.07" width="71.442" height="35.721"/>
	</g>
</g>
<g>
	<g>
		<rect x="85.692" y="38.057" transform="matrix(0.7071 -0.7071 0.7071 0.7071 -21.8386 94.8311)" width="35.721" height="71.441"/>
	</g>
</g>
<g>
</g>
<g>
</g>
<g>
</g>
<g>
</g>
<g>
</g>
<g>
</g>
<g>
</g>
<g>
</g>
<g>
</g>
<g>
</g>
<g>
</g>
<g>
</g>
<g>
</g>
<g>
</g>
<g>
</g>
</svg>
